# xmcd CD database file
#
# Track frame offsets:
#	150
#	20051
#	39915
#	59781
#
# Disc length: 1035 seconds
#
# Revision: 1
# Processed by: cddbd v1.5.2PL0 Copyright (c) Steve Scherf et al.
# Submitted via: CDex 1.51
#
DISCID=32040904
DTITLE=U.G.K. - Int'l Player's Anthem ft Outkast
DYEAR=2006
DGENRE=Rap
TTITLE0=Int'l Player's Anthem (Clean)
TTITLE1=Int'l Player's Anthem (Instrumental)
TTITLE2=Int'l Player's Anthem (Dirty)
TTITLE3=Int'l Player's Anthem (Acapella)
EXTD=YEAR: 2006
EXTT0=
EXTT1=
EXTT2=
EXTT3=
PLAYORDER=
